# xmcd
#
# Track frame offsets:
#	150
#	17590
#	37421
#	60229
#	73272
#	93029
#	108526
#	123255
#	142542
#	161799
#	174745
#	197969
#	219338
#
# Disc length: 3179 seconds
#
# Revision: 0
# Processed by: cddbd v1.5.2PL0 Copyright (c) Steve Scherf et al.
# Submitted via: audiograbber 1.83.01
#
DISCID=b40c690d
DTITLE=The Toy Hearts - Femme Fatale
DYEAR=2011
DGENRE=Bluegrass
TTITLE0=Good For Me
TTITLE1=Femme Fatale
TTITLE2=Carolina
TTITLE3=This Little Kitty
TTITLE4=Bet Good Money
TTITLE5=Tequila And High Heels
TTITLE6=The Beck is Rising
TTITLE7=Devil On The Wall
TTITLE8=Tear Stained Letter
TTITLE9=This Town
TTITLE10=The Captain
TTITLE11=Creek Bluff Drive
TTITLE12=She Got There First
EXTD=
EXTT0=
EXTT1=
EXTT2=
EXTT3=
EXTT4=
EXTT5=
EXTT6=
EXTT7=
EXTT8=
EXTT9=
EXTT10=
EXTT11=
EXTT12=
PLAYORDER=
